<svg width="135" height="46" viewBox="0 0 135 46" fill="none" xmlns="http://www.w3.org/2000/svg">
<path d="M12.24 27.3338C10 27.3338 8.4 25.6338 8.4 23.2738C8.4 20.9338 10 19.2138 12.24 19.2138C13.64 19.2138 14.7 19.8938 15.36 20.8538L18.18 18.6938C16.88 16.9938 14.8 15.8738 12.24 15.8738C7.78 15.8738 4.74 19.2738 4.74 23.2738C4.74 27.2738 7.78 30.6738 12.24 30.6738C14.8 30.6738 16.88 29.5538 18.18 27.8338L15.36 25.6938C14.7 26.6538 13.62 27.3338 12.24 27.3338ZM18.6513 30.2738H22.4313L23.5713 26.9738H28.5312L29.6713 30.2738H33.4513L28.3713 16.2738H23.7313L18.6513 30.2738ZM24.6113 23.9738L26.0513 19.8538L27.4913 23.9738H24.6113ZM35.5103 30.2738H39.0703V24.9738H40.5103C43.7903 24.9738 45.8103 23.3538 45.8103 20.6338C45.8103 17.8938 43.7903 16.2738 40.5103 16.2738H35.5103V30.2738ZM40.7103 19.2138C41.6103 19.2138 42.1303 19.7938 42.1303 20.5938C42.1303 21.4538 41.6103 22.0338 40.7103 22.0338H39.0703V19.2138H40.7103Z" fill="#000091"/>
<path d="M65.0739 29.4937L64.4539 28.8937C66.0339 27.5137 66.9739 25.4937 66.9739 23.2737C66.9739 19.2737 63.9339 15.8737 59.4939 15.8737C55.0339 15.8737 51.9939 19.2737 51.9939 23.2737C51.9939 27.2737 55.0339 30.6737 59.4939 30.6737C60.0339 30.6737 60.5539 30.6337 61.0339 30.5337L62.6139 31.9537C63.9939 33.1937 65.4939 33.9137 67.2139 33.9137C67.9139 33.9137 68.3339 33.8137 68.8739 33.5937V30.6337C68.5539 30.7537 68.1339 30.7937 67.8539 30.7937C66.9539 30.7937 66.0739 30.4537 65.0739 29.4937ZM59.4939 27.3337C57.2539 27.3337 55.6539 25.6337 55.6539 23.2737C55.6539 20.9337 57.2539 19.2137 59.4939 19.2137C61.7139 19.2137 63.3139 20.9137 63.3139 23.2737C63.3139 25.6137 61.7139 27.3337 59.4939 27.3337ZM77.5941 24.9937C77.5941 26.4337 76.7741 27.3337 75.3141 27.3337C73.8341 27.3337 73.0141 26.4337 73.0141 24.9937V16.2737H69.4541V24.6537C69.4541 28.3737 71.6141 30.6737 75.2941 30.6737C78.9941 30.6737 81.1541 28.3737 81.1541 24.6537V16.2737H77.5941V24.9937ZM82.5263 30.2737H86.3063L87.4463 26.9737H92.4062L93.5463 30.2737H97.3263L92.2463 16.2737H87.6063L82.5263 30.2737ZM88.4863 23.9737L89.9263 19.8537L91.3663 23.9737H88.4863ZM99.3853 30.2737H108.025V27.0537H102.945V16.2737H99.3853V30.2737ZM110.538 30.2737H114.098V16.2737H110.538V30.2737ZM117.979 30.2737H121.539V24.6137H125.819V21.6737H121.539V19.2137H126.619V16.2737H117.979V30.2737Z" fill="#000091"/>
<path d="M13.9805 12.35V8H40.4505C43.6805 8 47.8905 11.49 51.4905 15.32C51.9705 14.86 52.5005 14.44 53.0605 14.06C49.2805 10.01 44.5105 6 40.4505 6H11.9805V12.3C12.1905 12.29 12.4005 12.27 12.6205 12.27C13.0805 12.27 13.5405 12.3 13.9805 12.35Z" fill="#000091"/>
<path d="M51.2205 30.97C47.6805 34.69 43.6005 38 40.4505 38H13.9805V34.21C13.5405 34.26 13.0805 34.28 12.6205 34.28C12.4005 34.28 12.2005 34.26 11.9805 34.25V40H40.4505C44.3905 40 49.0105 36.21 52.7505 32.27C52.1905 31.88 51.6805 31.45 51.2205 30.97Z" fill="#000091"/>
</svg>